<svg xmlns="http://www.w3.org/2000/svg" viewBox="0 0 2597.37 1174.24"><defs><style>.cls-1{fill:#f60;}.cls-2{fill:#e74030;}.cls-3{fill:#fab418;}.cls-4{fill:#de0732;}.cls-5{fill:#de0733;}.cls-6{fill:#cc1d46;}.cls-7{fill:#fff;}</style></defs><title>Asset 1</title><g id="Layer_2" data-name="Layer 2"><g id="Layer_1-2" data-name="Layer 1"><path class="cls-1" d="M622.87,342.28,342.77,3.08c-5.9-5.9-16.2-3-16.2,5.9l23.6,328.8-203.5-174c-5.9-5.9-16.2,0-14.7,8.8L213.07,497,17,382c-7.4-4.4-16.2,3-13.3,11.8l343.6,775.6c3,7.4,14.7,5.9,16.2-1.5l75.2-398.1,191.7-324.4a91.26,91.26,0,0,0-7.5-103.1Z"></path><path class="cls-2" d="M348.67,337.88l-205-174c-5.9-5.9-16.2,0-14.7,8.8l81.1,324.4,154.8,91.4-16.2-250.6Z"></path><path class="cls-3" d="M351.57,997c-2.9,8.9-14.7,7.4-16.2-1.5l-123.9-498.4L13.87,380.58c-7.4-4.4-16.2,3-13.3,11.8L344.17,1168c3,7.4,14.7,5.9,16.2-1.5l75.2-398.1-1.5,1.5L351.57,997Z"></path><path class="cls-4" d="M351.57,997l85.5-227.1-38.3,63.4c-4.4,7.4-16.2,4.4-16.2-4.4l-16.2-240.4-154.8-91.4,123.9,498.4c1.4,8.8,13.2,10.3,16.1,1.5"></path><path class="cls-1" d="M620,342.28,339.77,3.08c-4.4-5.9-14.7-1.5-14.7,5.9l23.6,328.8,141.5,122.4c28,23.6,38.3,63.4,25.1,98.8l-78.1,206.4v2.9l191.7-324.4c19.1-30.8,14.7-72.1-8.9-101.6"></path><path class="cls-5" d="M406.17,613.58c32.4,19.2,48.7,56,42.8,92.9l-11.8,60.4,78.1-206.4c13.3-35.4,3-73.7-25.1-98.8l-141.5-122.4L366.37,590l39.8,23.6Z"></path><path d="M435.67,771.38l1.5-3v-2.9"></path><path d="M435.67,771.38l1.5-3v-2.9"></path><path class="cls-6" d="M406.17,613.58l-41.3-25.1,16.2,240.4c0,8.8,11.8,11.8,16.2,4.4l36.9-63.4,1.5-4.4,11.8-60.5c8.8-35.4-8.9-72.2-41.3-91.4"></path><path class="cls-7" d="M835.27,775.78h168.1l-84.1-224.1C919.27,550.18,835.27,775.78,835.27,775.78Zm79.6-309.7h13.3c17.7,0,33.9,10.3,39.8,28l197.6,504.3h-59c-10.3,0-20.6-7.4-23.6-16.2l-54.6-141.5H811.67l-53.1,141.5c-4.4,10.3-13.3,16.2-23.6,16.2h-57.5l196.1-504.3c7.4-16.2,23.6-28,41.3-28Z"></path><path class="cls-7" d="M1976.47,998.38h72.3V467.58h-72.3m274.3,116.5v414.3h-66.4V467.58h42.8c13.3,0,26.5,7.4,35.4,17.7L2531,862.78V466.18h66.4v532.3H2565c-14.7,0-28-7.4-35.4-17.7l-278.8-396.7Zm-535.3,414.3h-60.4l-143-430.6-143,430.6h-60.4l-159.3-530.8h57.5c11.8,0,22.1,7.4,25.1,19.2L1342.57,882l128.3-393.7c4.4-13.3,16.2-22.1,31-22.1H1527a32,32,0,0,1,31,22.1L1686.27,882l110.6-396.6c2.9-11.8,13.3-19.2,25.1-19.2h56l-162.5,532.2Z"></path></g></g></svg>