<?xml version="1.0" encoding="utf-8"?>
<!-- Generator: Adobe Illustrator 27.5.0, SVG Export Plug-In . SVG Version: 6.00 Build 0)  -->
<svg version="1.1" id="Layer_1" xmlns="http://www.w3.org/2000/svg" xmlns:xlink="http://www.w3.org/1999/xlink" x="0px" y="0px"
	 viewBox="0 0 1920 143.8" style="enable-background:new 0 0 1920 143.8;" xml:space="preserve">
<style type="text/css">
	.st0{fill:none;}
	.st1{fill:#FFFFFF;}
</style>
<path class="st0" d="M1201.5,113.8c0,3.5,0.3,8,2.6,8h1.4c4.4-3.3,9-10.6,13.1-19.5c-2.3,0.9-4.6,2-6.8,3.1
	C1206.8,107.9,1203.6,110.5,1201.5,113.8z"/>
<path class="st0" d="M1150.3,40.2V41c-5.7,9-21,52.5-20.4,69c0,2-0.8,11.8,2.5,11.8h1.4c11.8-8.8,24.9-46.3,24.5-66.3
	C1158.1,47.6,1155,40.6,1150.3,40.2z"/>
<path class="st0" d="M932.9,75.3c-1.6,1-7,8.9-9.4,12.9C931.7,86.5,937,79.4,932.9,75.3z"/>
<path class="st0" d="M1222,40.2V41c-4.7,7.5-15.9,38.2-19.4,58.1c1.6-1,3.1-1.8,4.6-2.6c5.2-2.7,10.6-4.9,16.2-6.8
	c4.1-12.1,6.8-25,6.6-34.2C1229.8,47.6,1226.7,40.6,1222,40.2z"/>
<path class="st0" d="M784.1,83.4c-4.1,6.7-7.2,15.7-8,16.9c-2.7,7.8-5.5,18.4-5.1,22.1c0.2,0.6,0.2,1.2,0.2,2c0.6,0,1.2-0.6,1.4-1.2
	c6.9-7.3,13.2-27.9,12.5-37.3C785.1,85,784.5,84.4,784.1,83.4z"/>
<path class="st1" d="M1154,32v-0.2c0.6-1.4,0.8-2.7,1.2-4.1l-0.2-0.6c0-1.4-2-5.5-3.5-5.5c-0.4,0-0.6,0-0.8,0.2
	c-0.6,0.2-1.4,0.2-2.5,0.2c-0.6,0.2-0.8,0.2-1.2,0.2h-0.6l-1.6,1.4l0.4,1.2c-0.8,1.2-1.6,2-2.7,3.1v1.2c-0.6,0.6-1.4,2.4-2,2.9
	c-7.8,16.1-24.1,49-23.3,75.1c0,9.2,2.2,22.5,13.9,23.3c20,0,31.4-30.6,35.5-46.6C1170.5,67.3,1175.4,38.5,1154,32z M1133.8,121.8
	h-1.4c-3.3,0-2.5-9.8-2.5-11.8c-0.6-16.5,14.7-60,20.4-69v-0.8c4.7,0.4,7.8,7.4,8,15.3C1158.7,75.5,1145.6,113,1133.8,121.8z"/>
<path class="st1" d="M788.3,75.9c1.2-2,2-1.2,2.7-4.1c-1.6-2.9-3.1-3.5-6.1-3.5h-1.6l-2.4,0.2l-1,1c-1.8,5.5-19.6,32.3-18.8,50.2
	c0.8,7.1,4.7,10.8,11.8,10.8c6.9-0.2,13.9-10.4,16.3-16.1c2.4-6.1,5.9-18.4,5.7-25.1c-0.4-3.5-1-7.3-3.1-10.4
	C791,77.3,790.1,77.1,788.3,75.9z M772.6,123.2c-0.2,0.6-0.8,1.2-1.4,1.2c0-0.8,0-1.4-0.2-2c-0.4-3.7,2.4-14.3,5.1-22.1
	c0.8-1.2,3.9-10.2,8-16.9c0.4,1,1,1.6,1,2.5C785.8,95.3,779.5,115.9,772.6,123.2z"/>
<path class="st1" d="M882.4,86.5c0.8-1.8,0.6-4.3,0.6-6.9c-0.4-1.6-1.6-3.7-3.5-3.7c-0.4,0-0.8,0-1.2,0.2c-5.3,1.8-6.7,8.2-6.3,13.9
	c0,0.8,0.6,1.8,0.4,2.7c-2.9,11.4-12.2,32.7-13.3,32.9c-0.2-5.7,0.4-13.3,1.6-23.1c1.6-15.9,4.7-18.2,4.7-27.6c0-1.2-1-2.5-1-3.5
	c-1.2-2.2-2.2-3.3-4.5-3.3c-1.4,0-3.7,0-4.9,0.8c-2,0.2-3.1,1.8-3.5,2.5c-3.7,5.1-7.3,11.8-10.4,17.6c-6.1,11-11,22.9-16.1,34.7
	l-0.2-0.6v-1.4c0-10.6,1.8-20.4,4.5-30.6c4.3-11.4,6.3-20,5.9-24.1c-0.2-2.5-2.2-6.1-5.1-6.1c-1.6,0-2.9,0.2-4.3,0.8
	c-0.2,0-0.4,0.2-0.4,0.4s0,0.2,0.2,0.2c0.2,4.9-5.9,22.5-7.8,31.6c-1.4,6.1-3.7,16.1-3.5,22.1c1.2,8.6,3.7,15.3,13.7,15.3
	c5.1,0,10.6-15.3,16.9-28.8c2.9-5.5,5.7-11.2,8.4-16.9c-2.4,11.4-5.3,23.7-4.1,36.1c0.4,4.3,3.5,11.8,8.8,11.8h3.1
	c8.2,0,17.2-32.5,19.8-39.6c4.7,0.6,7.1,0.8,8.8,0.8c2,0,3.3-0.2,6.5-1l0.4-0.6c-0.6,0-1.4-0.6-1.2-1.4l2,0.2l-0.2-0.6l1.8-1.2
	c-0.2,0,1.4-1.8,1.2-1.8h-1C893,87.9,887.9,87.7,882.4,86.5z"/>
<path class="st1" d="M1097.4,26.7c-1,0-2-0.6-2.9-0.6c-2,0-6.7,4.5-6.7,6.5c0,1,0.8,1.8,0.8,2.5c0,6.3-3.7,18.8-5.3,25.1
	c-4.5,17.2-9.4,39.6-9.2,51.4c0.2,8-1,19.6,6.1,24.3h1.2l-0.4-1.6l1.4-0.2v-1l1.2,0.6c0.2,0.4,1,1,1.4,1.2l-0.2-1.4
	c0.4-0.6,0.8-1,0.8-1.8c0-1.6-1-3.3-1-5.7c0.4-21.2,4.1-40.4,9.2-60.8c2-9,5.1-19.8,5.3-29C1098.9,33.2,1099.9,28.9,1097.4,26.7z"/>
<path class="st1" d="M1018.6,75.1c0.2-0.4-0.6-2.2-1-2.7l-1.2-0.8h-1.2c-1-0.2-1.8-0.4-2.4-0.4c-12.5,0-24.5,19.2-30.2,29.8
	c2.2-8.2,9-26.9,9-33.3c0-1.6-2.4-3.5-5.7-3.9c-0.4,0-0.8-0.2-1-0.2c-0.6,0-1,0.2-1.6,0.6l-2.4,7.3c-4.9,14.5-13.5,37.6-13.5,52.7
	c0,7.1,0.4,7.6,5.9,11.8c0.8,0,1,0.6,1,0.6l0.8-0.2l0.4,0.2c1.4-0.2,2.5-1.8,3.1-2.5c2.7-3.9,3.3-8.6,4.9-13.1
	c5.1-15.1,12.7-31.9,26.7-41.2c1.4-1,3.7-2.2,4.9-2.2c0.4,0,2.4,3.7,2.9,4.7v-0.4c0,0,0.6-3.1,0.6-3.3v-0.8
	C1018.2,77.1,1019,76.1,1018.6,75.1z"/>
<path class="st1" d="M959.6,92.6c0-1,1-2.4,1-3.5l-0.6-0.8c0.4-0.4,0.4-1,0.4-1.4c-2.2,1.2-6.5,8.4-8,10.8
	c-5.5,8-23.3,29.4-32.5,29.4c-11,0-2.4-26.3,0.2-31.2c1.4-0.2,23.1-1,23.1-18.8c0-4.5-2-5.9-5.9-7.1c-1.2-0.6-6.1-2.2-7.4-2.2
	c-0.8,0-3.3,0-3.5,0.4l-0.4,0.6c-10.2,7.8-21,30.4-21.8,43.9c-0.6,12.3,4.1,19.8,16.7,21.6c0.4,0,0.8,0.2,1.4,0.2
	c11.2,0,30.6-21.4,35.5-34.3c0.8-2,2.7-4.1,2.9-6.7L960,93C960,93,959.6,92.8,959.6,92.6z M932.9,75.3c4.1,4.1-1.2,11.2-9.4,12.9
	C925.9,84.2,931.3,76.3,932.9,75.3z"/>
<path class="st1" d="M1475.2,78.6c-6.5-0.4-13-0.9-19.5-1.3c-65.3-4.5-132.8-9.2-198.3,4c-6.1,1.2-12.8,2.6-19.6,4.3
	c0.2-0.6,0.3-1.2,0.5-1.8c3.9-16.5,8.8-45.3-12.5-51.7v-0.2c0.6-1.4,0.8-2.7,1.2-4.1l-0.2-0.6c0-1.4-2-5.5-3.5-5.5
	c-0.4,0-0.6,0-0.8,0.2c-0.6,0.2-1.4,0.2-2.5,0.2c-0.6,0.2-0.8,0.2-1.2,0.2h-0.6l-1.2,2.5c-0.8,1.2-1.6,2-2.7,3.1v1.2
	c-0.6,0.6-1.4,2.4-2,2.9c-7.8,16.1-24.1,49-23.3,75.1c0,9.2,2.2,22.5,13.9,23.3c15.3,0,25.6-17.9,31.4-33.5
	c8.7-2.5,17.5-4.2,25.2-5.8c64.2-13,131-8.3,195.6-3.8c6.5,0.5,13.1,0.9,19.6,1.3c102.4,6.9,220.3,14.7,341.5,14.7
	c34.4,0,69.1-0.7,103.8-2.1v-10C1763.5,97.9,1606.6,87.4,1475.2,78.6z M1205.5,121.8h-1.4c-2.3,0-2.6-4.5-2.6-8
	c2.1-3.3,5.3-5.9,10.3-8.4c2.2-1.1,4.5-2.2,6.8-3.1C1214.5,111.2,1209.9,118.5,1205.5,121.8z M1223.4,89.7c-5.6,1.9-11,4.1-16.2,6.8
	c-1.5,0.8-3,1.6-4.6,2.6c3.5-19.9,14.7-50.6,19.4-58.1v-0.8c4.7,0.4,7.8,7.4,8,15.3C1230.2,64.7,1227.5,77.6,1223.4,89.7z"/>
<path class="st1" d="M726.5,9.7c-1.6-0.2-2.9-0.2-4.5-0.2c-14.3,0-28.8,5.9-39.4,16.3c-1.4,1.6-4.1,4.5-4.3,6.3c2,4.1-0.2,7.6,5.5,8
	c0.6,0,1.4-0.4,1.8-0.6c2.2-2.2,2-4.3,5.7-7.6c11.4-9.2,24.7-12.7,39-12.7c15.9,1.2,25.3,11.8,24.1,25.5
	C753,60.4,736.2,76.4,715.7,84c-0.2,0.1-0.4,0.1-0.6,0.2c-0.4,0.2-0.9,0.3-1.3,0.5c-4.8,1.6-9.7,2.8-14.7,3.4
	c0.6-1.4,5.3-17.9,6.2-19.3l-0.3,0.1c1.5-4.9,11.9-29.7,13-41.6c0.2-1.4-1.4-2.9-3.1-3.1c-1.6,0-3.1,0.4-4.7,1.2H709l-0.6,0.4
	c0,0.8-0.2,1.6,0,2.4c-5.9,18-12.5,31.8-17.6,48l0.5-0.2c-0.2,1.7-1.9,8.2-3.8,15.2c-7,1-14.2,1.6-21.2,2.3
	c-2.9,0.3-5.7,0.5-8.5,0.8c-12.9,1.3-25.8,2.5-38.7,3.8c-37,3.7-75.2,7.5-112.9,10.4c-114.6,8.6-236.8,12.5-384.7,12.3
	c-0.1,0-0.1,0-0.2,0C91,121.8,48,121.1,0,119.3v9.8c32.5,1.2,62.7,1.9,88.3,1.9c12.2,0,23.3-0.2,33.1-0.5
	c148.1,0.2,270.6-3.7,385.4-12.3c37.8-2.8,76.1-6.7,113.2-10.4c12.9-1.3,25.7-2.6,38.6-3.8c2.8-0.3,5.6-0.5,8.4-0.8
	c5.8-0.5,11.6-1,17.5-1.8c-1.1,4.1-1.9,7.4-2,8.5c-0.8,6.1-1,15.3,2.7,20.6c1.2,2,0.8,2.2,2,3.7c1,0.4,2.5,0.6,3.5,0.6
	c0.4,0,0.6,0,1.2-0.2l-0.8-1c0.2,0,0.8,0.2,1-0.2c-1.1-8.5,2.1-23.3,4.2-33.8c3.9-0.5,7.5-1.4,11.2-2.4
	c25.2-4.8,53.1-23.5,55.1-49.3C764.2,24.6,747.7,11.2,726.5,9.7z"/>
</svg>
